Coordinates
version=1
nRows=13
nColumns=36
inDegrees=yes

Units are S.I. units (second, meters, Newtons, ...)
If the header above contains a line with 'inDegrees', this indicates whether rotational values are in degrees (yes) or radians (no).

endheader
time	pelvis_tilt	pelvis_list	pelvis_rotation	pelvis_tx	pelvis_ty	pelvis_tz	hip_flexion_r	hip_adduction_r	hip_rotation_r	knee_angle_r	knee_angle_r_beta	ankle_angle_r	subtalar_angle_r	mtp_angle_r	hip_flexion_l	hip_adduction_l	hip_rotation_l	knee_angle_l	knee_angle_l_beta	ankle_angle_l	subtalar_angle_l	mtp_angle_l	lumbar_extension	lumbar_bending	lumbar_rotation	arm_flex_r	arm_add_r	arm_rot_r	elbow_flex_r	pro_sup_r	arm_flex_l	arm_add_l	arm_rot_l	elbow_flex_l	pro_sup_l
      1.59000000	    -14.86204444	      1.05392247	      2.59844933	     -0.46189944	      1.15138620	     -0.56532168	     27.28370554	     -7.11441499	     -7.09248394	      8.86917442	      0.15479630	     -9.76461440	     -9.06508715	     -6.46763779	     31.22589277	     -4.93905043	     -3.62838525	     14.35059942	      0.25046521	    -29.12249835	     -1.73531653	     -6.46763779	    -12.54395340	      0.53372069	     -2.30446759	    -45.36892806	     -5.60355698	    -33.15011268	     41.08861297	    105.80133543	    -37.04426473	    -11.53424425	    -19.96506803	     37.11772829	    107.53174420
      1.60000000	    -14.66222922	      1.01018314	      2.84207537	     -0.45105872	      1.13202978	     -0.56526551	     27.40339695	     -7.13517268	     -7.06830910	      8.03789307	      0.14028770	     -8.34716432	     -9.31641953	     -6.47567071	     31.83688410	     -5.03326723	     -3.97839776	     13.57862532	      0.23699172	    -29.74124812	     -1.59079971	     -6.47567071	    -12.82574827	      0.62500995	     -2.29238642	    -46.05551257	     -5.02484247	    -33.21947884	     40.40521379	    105.82998548	    -37.47021154	    -11.22254643	    -20.31976414	     36.65790559	    107.41931536
      1.61000000	    -14.35763749	      1.08770257	      2.92714404	     -0.44016577	      1.11183749	     -0.56508598	     27.65410871	     -7.29050302	     -7.32889258	      7.92078129	      0.13824371	     -6.02065550	     -8.37413010	     -6.53313150	     32.31019137	     -5.09953054	     -4.68710097	     12.99395418	      0.22678728	    -30.35546414	     -1.88902364	     -6.53313150	    -13.22331434	      0.51477968	     -2.25010630	    -46.42716323	     -4.45695670	    -33.59846750	     39.39299792	    105.33328634	    -37.87299425	    -10.68416510	    -21.48250996	     36.28902195	    106.48297732
      1.62000000	    -13.91454351	      0.97137505	      3.04039638	     -0.42948963	      1.09084313	     -0.56488566	     27.67819768	     -7.20780143	     -7.30711735	      7.85465782	      0.13708964	     -4.69227833	     -8.82342081	     -6.54819872	     32.77524955	     -5.36193372	     -5.14021865	     12.80332666	      0.22346021	    -30.59469199	     -1.99846975	     -6.54819872	    -13.79714913	      0.61985239	     -1.98331154	    -46.90888607	     -3.82968628	    -33.74511603	     38.64759332	    105.05851349	    -38.11038754	    -10.42958281	    -21.83891321	     35.99035537	    106.14498831
      1.63000000	    -13.36289865	      0.91328759	      3.04949851	     -0.41891185	      1.06907859	     -0.56465515	     27.75062824	     -7.18113130	     -7.29516956	      8.24881398	      0.14396896	     -3.80605655	     -8.69646664	     -6.57345353	     33.14500664	     -5.63096206	     -5.61660000	     12.84717042	      0.22422542	    -31.00324608	     -2.16837578	     -6.57345353	    -14.51698317	      0.57843563	     -1.55392546	    -47.10584240	     -3.15465368	    -34.08968665	     37.52460857	    104.51183785	    -38.17135051	    -10.14434138	    -22.53663258	     35.74496549	    105.50056331
      1.64000000	    -12.91694880	      0.87595496	      3.11241618	     -0.40850842	      1.04604849	     -0.56448354	     28.01778121	     -7.20671520	     -7.14420945	      8.96085129	      0.15639636	     -3.78071742	     -8.45023320	     -6.59330687	     33.73325519	     -5.83300292	     -5.59817959	     13.31473018	      0.23238588	    -30.62494674	     -2.13835484	     -6.59330687	    -15.08531413	      0.49177962	     -1.52254745	    -47.47971936	     -2.65654524	    -34.03368066	     37.49502640	    103.88284727	    -38.59942061	     -9.85443198	    -22.57444904	     35.84967842	    104.83503388
      1.65000000	    -12.28771027	      0.88417317	      2.94802688	     -0.39809870	      1.02249049	     -0.56389362	     28.31611548	     -7.18082001	     -7.00397828	     10.22336510	      0.17843138	     -4.11211133	     -7.74245409	     -6.63003009	     34.27224588	     -6.25431067	     -6.39006250	     14.30355176	      0.24964407	    -31.48465908	     -2.49182421	     -6.63003009	    -15.95481949	      0.29786504	     -0.99477014	    -47.07421119	     -2.10515066	    -34.65874713	     35.47133651	    103.26211920	    -38.30417317	     -9.50006666	    -24.01886935	     35.48464772	    103.97141478
      1.66000000	    -11.91971412	      0.73829395	      2.81722758	     -0.38802886	      0.99744970	     -0.56330787	     29.04435576	     -7.00645377	     -6.59367460	     11.98548666	      0.20918620	     -4.30747418	     -7.37397385	     -6.67288140	     35.21120777	     -6.73438357	     -6.25376832	     15.61556719	      0.27254306	    -31.92621357	     -3.03488365	     -6.67288140	    -16.49093645	      0.27224175	     -0.66151700	    -46.89042229	     -1.66640451	    -34.90363590	     34.39815842	    102.58937306	    -38.16903115	     -9.07105607	    -25.04886834	     35.43710845	    103.03444388
      1.67000000	    -11.59771020	      0.58973496	      2.73411802	     -0.37797433	      0.97128135	     -0.56284328	     29.97308600	     -6.87458775	     -5.99392837	     14.19489543	      0.24774766	     -4.36880630	     -6.58975707	     -6.73621602	     36.20415295	     -7.06969825	     -5.54431582	     16.81981595	      0.29356117	    -33.66445114	     -4.45324987	     -6.73621602	    -16.93783699	      0.26357908	     -0.52355634	    -46.59671417	     -1.36026818	    -35.09434643	     33.38111388	    102.65397877	    -38.04707020	     -8.51953642	    -26.40748416	     35.47752537	    102.58325433
      1.68000000	    -11.42630943	      0.47943114	      2.76321613	     -0.36787795	      0.94380802	     -0.56225163	     30.94144980	     -6.76091917	     -5.34483504	     16.15423956	      0.28194467	     -4.60288394	     -6.19166418	     -6.78062354	     37.60040004	     -7.38013638	     -4.79332607	     19.31126553	      0.33704517	    -32.78084179	     -5.18152948	     -6.78062354	    -17.16668089	      0.25065191	     -0.49358069	    -46.33981867	     -0.98903147	    -35.30434051	     32.76551483	    101.60281641	    -37.75959225	     -8.25910274	    -26.84505664	     35.15200757	    101.39674375
      1.69000000	    -11.55220201	      0.26479065	      2.78806962	     -0.35897706	      0.91552710	     -0.56151187	     32.46451869	     -6.42526750	     -4.54986577	     18.56482348	      0.32401729	     -4.23743773	     -9.14020539	     -6.87248925	     39.65218649	     -7.66611147	     -2.96339451	     24.69994276	      0.43109533	    -24.66104407	     -7.57400496	     -6.87248925	    -17.23339287	      0.31854230	     -0.51471003	    -45.55046121	     -0.82162436	    -35.42951529	     31.50916677	    100.50986682	    -37.05408860	     -7.98064892	    -27.50037700	     34.48132643	     99.96214039
      1.70000000	    -12.16914751	     -0.55466260	      2.25780667	     -0.35278704	      0.88671830	     -0.56058093	     36.58459726	     -5.42062107	     -3.64961901	     25.22474292	      0.44025482	     -0.93676707	    -14.97220739	     -7.08083049	     43.06323634	     -8.71646389	     -0.85883355	     33.30596218	      0.58129870	     -9.60004834	     -9.52704273	     -7.08083049	    -17.12788744	      0.98900285	      0.31101295	    -44.59195671	     -0.83388633	    -35.89900252	     30.43573686	    103.98025986	    -35.74689602	     -7.52876631	    -28.51978209	     33.56191321	    102.84434521
      1.71000000	    -13.56028938	     -1.16170582	      1.19607796	     -0.34960434	      0.85754092	     -0.55967940	     44.77456221	     -4.54392177	     -1.75686468	     38.42957730	      0.67072265	      4.66747143	    -18.64092494	     -7.16722388	     47.79272999	     -9.59836386	      0.86367085	     41.95542790	      0.73226036	      2.05332157	    -11.89990127	     -7.16722388	    -16.61245530	      1.39347947	      1.66443470	    -43.05430200	     -0.95787430	    -35.76529133	     29.43383059	     99.43955906	    -33.62496396	     -7.04851772	    -28.55704563	     32.64834175	     98.23774826
